<svg xmlns="http://www.w3.org/2000/svg" version="1.1" xmlns:xlink="http://www.w3.org/1999/xlink" xmlns:svgjs="http://svgjs.dev/svgjs" width="1000" height="1000" viewBox="0 0 1000 1000"><rect width="1000" height="1000" fill="#fbeaab"></rect><g transform="matrix(0.7,0,0,0.7,149.84897959183667,150.19913061224486)"><svg viewBox="0 0 343 343" data-background-color="#fbeaab" preserveAspectRatio="xMidYMid meet" height="999" width="1000" xmlns="http://www.w3.org/2000/svg" xmlns:xlink="http://www.w3.org/1999/xlink"><g id="tight-bounds" transform="matrix(1,0,0,1,0.0740000000000407,0.07400000000001228)"><svg viewBox="0 0 342.85155851775386 342.85155851775386" height="342.85155851775386" width="342.85155851775386"><g><svg></svg></g><g><svg viewBox="0 0 342.85155851775386 342.85155851775386" height="342.85155851775386" width="342.85155851775386"><g><path d="M0 171.426c0-94.676 76.75-171.426 171.426-171.426 94.676 0 171.426 76.75 171.426 171.426 0 94.676-76.75 171.426-171.426 171.426-94.676 0-171.426-76.75-171.426-171.426zM171.426 330.605c87.912 0 159.179-71.267 159.179-159.179 0-87.912-71.267-159.179-159.179-159.179-87.912 0-159.179 71.267-159.179 159.179 0 87.912 71.267 159.179 159.179 159.179z" data-fill-palette-color="tertiary" fill="#454545" stroke="transparent"></path><ellipse rx="164.56874808852186" ry="164.56874808852186" cx="171.42577925887693" cy="171.42577925887693" fill="#454545" stroke="transparent" stroke-width="0" fill-opacity="1" data-fill-palette-color="tertiary"></ellipse></g><g transform="matrix(1,0,0,1,64.84655864529837,103.52450160990351)"><svg viewBox="0 0 213.1584412271571 135.80255529794684" height="135.80255529794684" width="213.1584412271571"><g><svg viewBox="0 0 213.1584412271571 135.80255529794684" height="135.80255529794684" width="213.1584412271571"><g><svg viewBox="0 0 213.1584412271571 135.80255529794684" height="135.80255529794684" width="213.1584412271571"><g><svg viewBox="0 0 213.1584412271571 135.80255529794684" height="135.80255529794684" width="213.1584412271571"><g id="textblocktransform"><svg viewBox="0 0 213.1584412271571 135.80255529794684" height="135.80255529794684" width="213.1584412271571" id="textblock"><g><svg viewBox="0 0 213.1584412271571 135.80255529794684" height="135.80255529794684" width="213.1584412271571"><g transform="matrix(1,0,0,1,0,0)"><svg width="213.1584412271571" viewBox="-12.149999618530273 -34.75 55.80000305175781 35.54999923706055" height="135.80255529794684" data-palette-color="#fbeaab"><path d="M23.2-1.25L23.2-1.25Q23.2-0.75 24.03-0.75 24.85-0.75 26.95-1.73 29.05-2.7 30.65-3.7L30.65-3.7 32.25-4.7Q32.3-4.6 32.3-4.3 32.3-4 31.85-3.8L31.85-3.8Q25.1 0.8 22.45 0.8L22.45 0.8Q21.15 0.8 21.15-0.5 21.15-1.8 23.3-5.45L23.3-5.45 32.1-20.75Q32.1-20.9 31.93-20.9 31.75-20.9 31.25-20.43 30.75-19.95 22.13-11.15 13.5-2.35 12-0.8L12-0.8Q11.15 0.2 10.5 0.2L10.5 0.2Q9.95 0.2 9.95-0.45L9.95-0.45Q9.95-1.95 16.53-11.93 23.1-21.9 23.35-23.1L23.35-23.1Q23.35-23.25 23.23-23.25 23.1-23.25 22.38-22.53 21.65-21.8 12-11.75 2.35-1.7 0.8 0.05L0.8 0.05Q0.4 0.35-0.08 0.35-0.55 0.35-0.55-0.1L-0.55-0.1Q-0.55-0.45-0.1-1.2 0.35-1.95 1.18-3.35 2-4.75 4.13-8.65 6.25-12.55 7.88-16 9.5-19.45 10.83-23.4 12.15-27.35 12.15-29.85L12.15-29.85Q12.15-34 8.55-34L8.55-34Q4.4-34-0.23-31.63-4.85-29.25-7.75-26.15-10.65-23.05-10.65-20.8L-10.65-20.8Q-10.65-18.2-6.43-18.2-2.2-18.2 1.63-20.83 5.45-23.45 7.05-26.45L7.05-26.45Q7.3-26.75 7.45-26.75 7.6-26.75 7.6-26.08 7.6-25.4 6.5-23.75 5.4-22.1 3.63-20.43 1.85-18.75-0.88-17.55-3.6-16.35-6.45-16.35L-6.45-16.35Q-12.15-16.35-12.15-20.1L-12.15-20.1Q-12.15-22.15-10.35-24.68-8.55-27.2-5.65-29.45-2.75-31.7 1.38-33.23 5.5-34.75 9.6-34.75L9.6-34.75Q14.25-34.75 14.25-29.9L14.25-29.9Q14.25-27.4 13.03-23.7 11.8-20 10.1-16.5L10.1-16.5Q6.65-9.65 3.6-4.9L3.6-4.9 2.4-2.95Q2.6-3.05 7.3-7.95L7.3-7.95Q22.85-24.05 24.2-25.4L24.2-25.4Q25.15-25.4 25.35-25.15 25.55-24.9 25.55-24.8L25.55-24.8 25.55-24.75Q25.55-23.4 16.5-9.2L16.5-9.2Q13-3.75 12.7-3.25L12.7-3.25 12.25-2.25Q12.65-2.25 17.4-7.28 22.15-12.3 27.03-17.32 31.9-22.35 32.6-22.35L32.6-22.35Q32.9-22.35 33.25-22.08 33.6-21.8 33.6-21.5 33.6-21.2 33.45-20.9L33.45-20.9 24.5-4.7Q23.2-2.3 23.2-1.25ZM37-1.2L37.5-1.4Q39.9-2.4 42.65-4.1L42.65-4.1 43.6-4.7Q43.65-4.6 43.65-4.3 43.65-4 43.2-3.8L43.2-3.8Q40.55-2 37.9-0.65 35.25 0.7 33 0.7L33 0.7Q30.15 0.7 30.15-1.35L30.15-1.35Q30.15-3.8 33.57-6.88 37-9.95 40.35-9.95L40.35-9.95Q41.75-9.95 41.75-8.75L41.75-8.75Q41.75-8.05 40.5-7L40.5-7Q38.75-5.55 38.3-5.55 37.85-5.55 37.85-5.95L37.85-5.95Q37.85-6.1 38.05-6.25L38.05-6.25Q38.55-6.55 39.17-7.18 39.8-7.8 39.8-8.25L39.8-8.25Q39.8-8.95 39.15-8.95L39.15-8.95Q37.75-8.95 35.05-6.43 32.35-3.9 32.35-2.35L32.35-2.35Q32.35-0.6 34.25-0.6L34.25-0.6Q35.5-0.6 37-1.2L37-1.2Z" opacity="1" transform="matrix(1,0,0,1,0,0)" fill="#fbeaab" class="wordmark-text-0" data-fill-palette-color="quaternary" id="text-0"></path></svg></g></svg></g></svg></g></svg></g><g></g></svg></g></svg></g></svg></g></svg></g><defs></defs></svg><rect width="342.85155851775386" height="342.85155851775386" fill="none" stroke="none" visibility="hidden"></rect></g></svg></g></svg>